<svg xmlns="http://www.w3.org/2000/svg" viewBox="0 0 32 32" width="32" height="32">
  <defs>
    <linearGradient id="bgGrad" x1="0%" y1="0%" x2="100%" y2="100%">
      <stop offset="0%" style="stop-color:#667eea;stop-opacity:1" />
      <stop offset="100%" style="stop-color:#764ba2;stop-opacity:1" />
    </linearGradient>
    <linearGradient id="bubbleGrad" x1="0%" y1="0%" x2="100%" y2="100%">
      <stop offset="0%" style="stop-color:#ffffff;stop-opacity:0.95" />
      <stop offset="100%" style="stop-color:#f8f9fa;stop-opacity:0.9" />
    </linearGradient>
    <filter id="shadow" x="-20%" y="-20%" width="140%" height="140%">
      <feDropShadow dx="0" dy="2" stdDeviation="2" flood-color="#000000" flood-opacity="0.3"/>
    </filter>
  </defs>
  
  <!-- Background circle with gradient -->
  <circle cx="16" cy="16" r="15" fill="url(#bgGrad)" filter="url(#shadow)"/>
  
  <!-- Chat bubble -->
  <path d="M8 12c0-2.2 1.8-4 4-4h8c2.2 0 4 1.8 4 4v6c0 2.2-1.8 4-4 4h-2l-3 3-3-3h-2c-2.2 0-4-1.8-4-4v-6z" 
        fill="url(#bubbleGrad)" stroke="#e9ecef" stroke-width="0.5"/>
  
  <!-- Document icon inside bubble -->
  <g transform="translate(12, 14)">
    <rect x="0" y="0" width="8" height="10" rx="1" fill="#2979ff" opacity="0.9"/>
    <path d="M2 2h4v1h-4z" fill="white"/>
    <path d="M2 4h6v0.5h-6z" fill="white"/>
    <path d="M2 6h5v0.5h-5z" fill="white"/>
    <path d="M2 8h4v0.5h-4z" fill="white"/>
  </g>
  
  <!-- Sparkle effect -->
  <circle cx="24" cy="8" r="1" fill="#ffd700" opacity="0.8">
    <animate attributeName="opacity" values="0.8;0.3;0.8" dur="2s" repeatCount="indefinite"/>
  </circle>
  <circle cx="26" cy="12" r="0.8" fill="#ff6b6b" opacity="0.6">
    <animate attributeName="opacity" values="0.6;0.2;0.6" dur="1.5s" repeatCount="indefinite"/>
  </circle>
</svg> 